# xmcd CD database file
#
# Track frame offsets:
#	150
#	22671
#	60196
#	108532
#	146503
#	185203
#	200773
#	239636
#	272260
#
# Disc length: 3934 seconds
#
# Revision: 0
# Processed by: cddbd v1.5.2PL0 Copyright (c) Steve Scherf et al.
# Submitted via: CDex 1.70beta2
#
DISCID=7b0f5c09
DTITLE=Maciej Fortuna - Sahjia
DYEAR=2012
DGENRE=Jazz
TTITLE0=Prelude
TTITLE1=Resume
TTITLE2=Hush Hush - For The Old Friend
TTITLE3=Home Pictures
TTITLE4=Lobster Baby
TTITLE5=No Man's Land
TTITLE6=For The Old Friend
TTITLE7=Sahjia
TTITLE8=Bonus
EXTD=YEAR: 2012
EXTT0=
EXTT1=
EXTT2=
EXTT3=
EXTT4=
EXTT5=
EXTT6=
EXTT7=
EXTT8=
PLAYORDER=
